<svg width="2110" height="412" viewBox="0 0 2110 412" fill="none" xmlns="http://www.w3.org/2000/svg">
<path d="M0.580331 338.968L336.527 77.7306H0.531929V0H472.984V206.282L763.356 0H882.479L644.548 170.814L885.38 411.066H778.951L584.032 214.503L502.022 273.617H395.254V131.501L134.113 333.335H369.65H395.254H472.984V411.066H2.12219e-05L0.580331 338.968Z" fill="#F7931A"/>
<path d="M1154.86 411.066C1035.71 411.066 974.943 358.64 974.943 274.64V271.065H1039.28V280.597C1039.28 328.257 1067.28 352.087 1154.86 352.087C1231.11 352.087 1257.92 335.406 1257.92 297.874C1257.92 263.32 1237.67 250.214 1187.03 240.682L1089.33 224.597C1022.01 212.682 974.347 181.703 974.347 116.171C974.347 58.3832 1022.01 0 1145.92 0C1262.69 0 1315.71 58.3832 1315.71 136.426V140.001H1251.97V132.256C1251.97 83.4046 1222.77 58.979 1139.96 58.979C1067.28 58.979 1038.69 76.8514 1038.69 112.596C1038.69 147.15 1058.94 158.469 1106.01 168.597L1203.11 185.277C1282.94 199.575 1322.26 235.916 1322.26 294.299C1322.26 355.065 1272.82 411.066 1154.86 411.066Z" fill="#F7931A"/>
<path d="M1572.88 405.108H1509.13V267.491L1333.98 5.95747H1412.62L1506.75 147.745L1540.11 198.384H1544.88L1577.64 147.745L1671.18 5.95747H1750.41L1572.88 268.682V405.108Z" fill="#F7931A"/>
<path d="M1942.59 411.066C1823.45 411.066 1762.68 358.64 1762.68 274.64V271.065H1827.02V280.597C1827.02 328.257 1855.02 352.087 1942.59 352.087C2018.85 352.087 2045.66 335.406 2045.66 297.874C2045.66 263.32 2025.4 250.214 1974.77 240.682L1877.06 224.597C1809.74 212.682 1762.08 181.703 1762.08 116.171C1762.08 58.3832 1809.74 0 1933.66 0C2050.43 0 2103.45 58.3832 2103.45 136.426V140.001H2039.7V132.256C2039.7 83.4046 2010.51 58.979 1927.7 58.979C1855.02 58.979 1826.42 76.8514 1826.42 112.596C1826.42 147.15 1846.68 158.469 1893.74 168.597L1990.85 185.277C2070.68 199.575 2110 235.916 2110 294.299C2110 355.065 2060.55 411.066 1942.59 411.066Z" fill="#F7931A"/>
</svg>
